<svg width="21" height="20" viewBox="0 0 21 20" fill="none" xmlns="http://www.w3.org/2000/svg">
<path fill-rule="evenodd" clip-rule="evenodd" d="M9.60937 11.6543V6.66675V1.66675H10.6094V6.66675V11.6541L11.9195 10.5404L12.3005 10.2165L12.9482 10.9784L12.5672 11.3023L10.4331 13.1165C10.2464 13.2752 9.97214 13.2752 9.78542 13.1165L7.65133 11.3023L7.27038 10.9784L7.91807 10.2165L8.29902 10.5404L9.60937 11.6543ZM2.9427 8.90222C2.9427 7.52151 4.06199 6.40222 5.4427 6.40222H6.79706V7.40222H5.4427C4.61428 7.40222 3.9427 8.07379 3.9427 8.90222V15.7356C3.9427 16.564 4.61428 17.2356 5.4427 17.2356H14.776C15.6045 17.2356 16.276 16.564 16.276 15.7356V8.90222C16.276 8.07379 15.6045 7.40222 14.776 7.40222H13.4123V6.40222H14.776C16.1567 6.40222 17.276 7.52151 17.276 8.90222V15.7356C17.276 17.1163 16.1568 18.2356 14.776 18.2356H5.4427C4.06199 18.2356 2.9427 17.1163 2.9427 15.7356V8.90222Z" fill="white"/>
</svg>
