<svg width="45" height="44" viewBox="0 0 45 44" fill="none" xmlns="http://www.w3.org/2000/svg">
<path d="M9.6213 5.86255L2.8123 15.5899C2.68372 15.7674 2.69696 16.034 2.8425 16.1979L22.2973 38.5709C22.4791 38.7771 22.8448 38.7771 23.0267 38.5709L42.4814 16.1979C42.627 16.034 42.6402 15.7674 42.5116 15.5899L35.7026 5.86255C35.6117 5.7394 35.4604 5.66374 35.3074 5.6651H10.0162C9.82791 5.64712 9.70408 5.7696 9.62164 5.86255H9.6213ZM10.7459 6.63777H21.5529L14.0748 14.9667L10.7459 6.63777ZM23.7719 6.63777H34.5789L31.2504 14.9667L23.7719 6.63777ZM22.6626 6.88103L30.3381 15.3925H15.0027L22.6626 6.88103ZM9.8954 7.15447L13.1938 15.3925H4.13514L9.8954 7.15447ZM35.4298 7.15447L41.1901 15.3925H32.1315L35.4298 7.15447ZM4.27176 16.3651H13.5883L21.522 36.2003L4.27176 16.3651ZM14.6375 16.3651H30.7033L22.6631 36.4434L14.6375 16.3651ZM31.7368 16.3651H41.0534L23.7873 36.2003L31.7368 16.3651Z" fill="white" stroke="white" stroke-width="0.733333"/>
</svg>
